<mxfile host="app.diagrams.net" modified="2023-09-18T04:11:14.315Z" agent="Mozilla/5.0 (Windows NT 10.0; Win64; x64) AppleWebKit/537.36 (KHTML, like Gecko) Chrome/112.0.0.0 Safari/537.36 Edg/112.0.1722.58" etag="5LtirS80PTTEtz1Jl-lg" version="21.7.5" type="device">
  <diagram name="Page-1" id="i_v1LC3cWHOMZQWKH3AO">
    <mxGraphModel dx="993" dy="925" grid="1" gridSize="10" guides="1" tooltips="1" connect="1" arrows="1" fold="1" page="1" pageScale="1" pageWidth="850" pageHeight="1100" math="0" shadow="0">
      <root>
        <mxCell id="0" />
        <mxCell id="1" parent="0" />
        <mxCell id="31UjYnKrsDbOrrQoLQqg-1" value="" style="shape=cube;whiteSpace=wrap;html=1;boundedLbl=1;backgroundOutline=1;darkOpacity=0.05;darkOpacity2=0.1;size=10;direction=east;fillColor=#6a00ff;strokeColor=#3700CC;fillStyle=hatch;fontColor=#ffffff;" vertex="1" parent="1">
          <mxGeometry x="680" y="441" width="40" height="240" as="geometry" />
        </mxCell>
        <mxCell id="31UjYnKrsDbOrrQoLQqg-32" style="edgeStyle=orthogonalEdgeStyle;rounded=0;orthogonalLoop=1;jettySize=auto;html=1;exitX=0;exitY=0;exitDx=40;exitDy=125;exitPerimeter=0;entryX=0;entryY=0.5;entryDx=0;entryDy=0;" edge="1" parent="1" source="31UjYnKrsDbOrrQoLQqg-2" target="31UjYnKrsDbOrrQoLQqg-12">
          <mxGeometry relative="1" as="geometry" />
        </mxCell>
        <mxCell id="31UjYnKrsDbOrrQoLQqg-2" value="" style="shape=cube;whiteSpace=wrap;html=1;boundedLbl=1;backgroundOutline=1;darkOpacity=0.05;darkOpacity2=0.1;size=10;direction=east;fillColor=#6a00ff;strokeColor=#3700CC;fillStyle=hatch;fontColor=#ffffff;" vertex="1" parent="1">
          <mxGeometry x="405" y="449" width="40" height="240" as="geometry" />
        </mxCell>
        <mxCell id="31UjYnKrsDbOrrQoLQqg-30" style="edgeStyle=orthogonalEdgeStyle;rounded=0;orthogonalLoop=1;jettySize=auto;html=1;exitX=1;exitY=0.5;exitDx=0;exitDy=0;entryX=0;entryY=0;entryDx=0;entryDy=115;entryPerimeter=0;" edge="1" parent="1" source="31UjYnKrsDbOrrQoLQqg-6" target="31UjYnKrsDbOrrQoLQqg-2">
          <mxGeometry relative="1" as="geometry" />
        </mxCell>
        <mxCell id="31UjYnKrsDbOrrQoLQqg-6" value="&lt;font style=&quot;font-size: 14px;&quot;&gt;Embedding Matrix&lt;/font&gt;" style="rounded=1;whiteSpace=wrap;html=1;" vertex="1" parent="1">
          <mxGeometry x="250" y="517.5" width="100" height="95" as="geometry" />
        </mxCell>
        <mxCell id="31UjYnKrsDbOrrQoLQqg-33" style="edgeStyle=orthogonalEdgeStyle;rounded=0;orthogonalLoop=1;jettySize=auto;html=1;exitX=1;exitY=0.5;exitDx=0;exitDy=0;entryX=-0.044;entryY=0.548;entryDx=0;entryDy=0;entryPerimeter=0;" edge="1" parent="1" source="31UjYnKrsDbOrrQoLQqg-12" target="31UjYnKrsDbOrrQoLQqg-1">
          <mxGeometry relative="1" as="geometry" />
        </mxCell>
        <mxCell id="31UjYnKrsDbOrrQoLQqg-12" value="&lt;font style=&quot;font-size: 14px;&quot;&gt;Embedding Matrix&lt;/font&gt;" style="rounded=1;whiteSpace=wrap;html=1;" vertex="1" parent="1">
          <mxGeometry x="500" y="525.5" width="100" height="95" as="geometry" />
        </mxCell>
        <mxCell id="31UjYnKrsDbOrrQoLQqg-28" style="edgeStyle=orthogonalEdgeStyle;rounded=0;orthogonalLoop=1;jettySize=auto;html=1;exitX=0;exitY=0;exitDx=40;exitDy=125;exitPerimeter=0;entryX=0;entryY=0.25;entryDx=0;entryDy=0;" edge="1" parent="1" source="31UjYnKrsDbOrrQoLQqg-24" target="31UjYnKrsDbOrrQoLQqg-6">
          <mxGeometry relative="1" as="geometry" />
        </mxCell>
        <mxCell id="31UjYnKrsDbOrrQoLQqg-24" value="" style="shape=cube;whiteSpace=wrap;html=1;boundedLbl=1;backgroundOutline=1;darkOpacity=0.05;darkOpacity2=0.1;size=10;direction=east;fillColor=#6a00ff;strokeColor=#3700CC;fillStyle=hatch;fontColor=#ffffff;" vertex="1" parent="1">
          <mxGeometry x="130" y="191" width="40" height="240" as="geometry" />
        </mxCell>
        <mxCell id="31UjYnKrsDbOrrQoLQqg-27" style="edgeStyle=orthogonalEdgeStyle;rounded=0;orthogonalLoop=1;jettySize=auto;html=1;exitX=0;exitY=0;exitDx=40;exitDy=125;exitPerimeter=0;entryX=0;entryY=0.5;entryDx=0;entryDy=0;" edge="1" parent="1" source="31UjYnKrsDbOrrQoLQqg-25" target="31UjYnKrsDbOrrQoLQqg-6">
          <mxGeometry relative="1" as="geometry" />
        </mxCell>
        <mxCell id="31UjYnKrsDbOrrQoLQqg-25" value="" style="shape=cube;whiteSpace=wrap;html=1;boundedLbl=1;backgroundOutline=1;darkOpacity=0.05;darkOpacity2=0.1;size=10;direction=east;fillColor=#6a00ff;strokeColor=#3700CC;fillStyle=hatch;fontColor=#ffffff;" vertex="1" parent="1">
          <mxGeometry x="130" y="441" width="40" height="240" as="geometry" />
        </mxCell>
        <mxCell id="31UjYnKrsDbOrrQoLQqg-29" style="edgeStyle=orthogonalEdgeStyle;rounded=0;orthogonalLoop=1;jettySize=auto;html=1;exitX=0;exitY=0;exitDx=40;exitDy=125;exitPerimeter=0;entryX=0;entryY=0.75;entryDx=0;entryDy=0;" edge="1" parent="1" source="31UjYnKrsDbOrrQoLQqg-26" target="31UjYnKrsDbOrrQoLQqg-6">
          <mxGeometry relative="1" as="geometry" />
        </mxCell>
        <mxCell id="31UjYnKrsDbOrrQoLQqg-26" value="" style="shape=cube;whiteSpace=wrap;html=1;boundedLbl=1;backgroundOutline=1;darkOpacity=0.05;darkOpacity2=0.1;size=10;direction=east;fillColor=#6a00ff;strokeColor=#3700CC;fillStyle=hatch;fontColor=#ffffff;" vertex="1" parent="1">
          <mxGeometry x="130" y="691" width="40" height="240" as="geometry" />
        </mxCell>
      </root>
    </mxGraphModel>
  </diagram>
</mxfile>
